#!OML:ASF F:\VICON\USERDATA\INSTALL\rory3\rory3.ASF
:FULLY-SPECIFIED
:DEGREES
137
root 1.59364 17.2644 34.7962 -160.209 -52.4772 -171.832
lowerback -16.5706 1.57759 0.631177
upperback -10.0035 0.921054 2.09312
thorax -1.38978 0.035328 1.99126
lowerneck 0.538561 -15.5311 -9.18046
upperneck 15.6196 -24.6445 13.7184
head 7.5839 -12.0868 3.69452
rclavicle -2.06891e-014 -9.64106e-015
rhumerus -58.7149 23.3265 -96.1559
rradius 36.859
rwrist -43.0813
rhand 17.1322 -10.5536
rfingers 7.12502
rthumb 41.8548 -35.1922
lclavicle -2.06891e-014 -9.64106e-015
lhumerus -58.7247 -7.10541 86.9493
lradius 37.6671
lwrist 38.7355
lhand 24.7912 31.2018
lfingers 7.12502
lthumb 48.9694 52.9493
rfemur -17.0127 -5.47372 32.7106
rtibia 38.6311
rfoot 38.6183 -17.9792
rtoes 20.717
lfemur -39.9058 0.96313 -27.9843
ltibia 30.7336
lfoot -43.7521 28.8924
ltoes 25.7626
138
root 1.59488 17.2671 34.7992 -160.214 -52.5619 -171.842
lowerback -16.5828 1.47518 0.651996
upperback -10.0289 0.772434 2.27501
thorax -1.40936 -0.0390243 2.14934
lowerneck -0.499122 -15.2746 -9.33106
upperneck 16.7211 -24.2769 13.1177
head 8.01795 -11.8582 3.45669
rclavicle -6.94752e-014 -4.04527e-014
rhumerus -59.0457 23.0575 -95.8698
rradius 36.8282
rwrist -41.7186
rhand 16.1526 -8.91626
rfingers 7.12502
rthumb 40.9355 -33.8531
lclavicle -6.94752e-014 -4.04527e-014
lhumerus -58.2992 -6.73985 86.5571
lradius 37.2771
lwrist 37.678
lhand 25.1427 30.9179
lfingers 7.12502
lthumb 49.2921 52.5046
rfemur -16.9945 -5.48377 32.7228
rtibia 38.6102
rfoot 38.4698 -18.3669
rtoes 21.4901
lfemur -39.8765 0.997743 -28.0177
ltibia 30.7004
lfoot -43.63 28.8721
ltoes 25.649
139
root 1.59877 17.2687 34.8007 -160.213 -52.6625 -171.819
lowerback -16.6332 1.52358 0.687049
upperback -10.1057 0.819518 2.28193
thorax -1.46706 -0.0217167 2.14502
lowerneck -1.14783 -15.0772 -9.1122
upperneck 17.4681 -24.0255 12.7203
head 8.26938 -11.6972 3.26671
rclavicle -3.96234e-014 2.29596e-014
rhumerus -59.1718 22.8174 -95.7148
rradius 36.6764
rwrist -40.8292
rhand 15.4926 -7.88434
rfingers 7.12502
rthumb 40.3151 -33.0145
lclavicle -3.96234e-014 2.29596e-014
lhumerus -57.9096 -6.82562 86.0137
lradius 36.8957
lwrist 36.3666
lhand 25.9128 30.5987
lfingers 7.12502
lthumb 49.9979 51.8226
rfemur -17.0247 -5.46638 32.7882
rtibia 38.5906
rfoot 38.3962 -18.6602
rtoes 22.0278
lfemur -39.9098 1.01844 -28.0161
ltibia 30.6948
lfoot -43.4969 28.8342
ltoes 25.4415
140
root 1.5996 17.2684 34.804 -160.322 -52.742 -171.7
lowerback -16.6855 1.60913 0.787962
upperback -10.1425 0.909763 2.32204
thorax -1.48132 0.0169556 2.14479
lowerneck -1.20583 -14.818 -8.67184
upperneck 17.4838 -23.5917 12.429
head 8.14009 -11.484 3.18405
rclavicle -4.74536e-014 -1.43125e-014
rhumerus -58.9715 22.8522 -95.4426
rradius 36.2588
rwrist -40.396
rhand 16.0166 -7.55834
rfingers 7.12502
rthumb 40.8077 -32.5355
lclavicle -4.74536e-014 -1.43125e-014
lhumerus -57.5138 -6.92494 85.4566
lradius 36.5811
lwrist 34.962
lhand 26.6713 30.4746
lfingers 7.12502
lthumb 50.691 51.3268
rfemur -17.0103 -5.54482 32.8778
rtibia 38.5741
rfoot 38.3712 -18.7758
rtoes 22.3285
lfemur -39.9381 1.19673 -28.035
ltibia 30.7275
lfoot -43.2014 28.8585
ltoes 24.9869
141
root 1.60139 17.2667 34.8096 -160.386 -52.7598 -171.673
lowerback -16.739 1.74619 0.842695
upperback -10.0939 1.0858 2.33923
thorax -1.40632 0.105701 2.15905
lowerneck -1.44791 -14.6443 -8.44114
upperneck 17.5821 -23.3048 12.2742
head 8.13366 -11.3266 3.12588
rclavicle 7.18855e-014 3.57812e-014
rhumerus -58.4766 22.689 -94.7898
rradius 35.8306
rwrist -40.1068
rhand 16.8347 -7.49138
rfingers 7.12502
rthumb 41.5758 -32.222
lclavicle 7.18855e-014 3.57812e-014
lhumerus -56.857 -6.84551 84.8148
lradius 36.2422
lwrist 33.4473
lhand 27.1474 30.5211
lfingers 7.12502
lthumb 51.1251 51.1324
rfemur -16.9782 -5.62663 32.8954
rtibia 38.5841
rfoot 38.353 -18.6441
rtoes 22.1394
lfemur -39.9277 1.10772 -27.9879
ltibia 30.7747
lfoot -43.2848 28.8556
ltoes 25.1987
142
root 1.60462 17.2647 34.8129 -160.539 -52.7942 -171.531
lowerback -16.7649 1.89808 1.02493
upperback -10.0661 1.26544 2.26627
thorax -1.36168 0.187821 2.00684
lowerneck -1.86246 -14.4685 -8.08914
upperneck 17.9709 -23.0988 12.1277
head 8.25265 -11.1888 3.01937
rclavicle 1.08213e-014 2.54444e-014
rhumerus -57.9407 22.2038 -94.1786
rradius 35.3386
rwrist -39.4018
rhand 18.0815 -7.51057
rfingers 7.12502
rthumb 42.7439 -31.8464
lclavicle 1.08213e-014 2.54444e-014
lhumerus -56.1731 -6.64311 83.8547
lradius 36.0195
lwrist 31.7836
lhand 27.8956 30.4735
lfingers 7.12502
lthumb 51.8054 50.6941
rfemur -16.9383 -5.73869 33.0113
rtibia 38.5864
rfoot 38.4125 -18.4654
rtoes 21.5242
lfemur -39.9305 1.01042 -27.8352
ltibia 30.8482
lfoot -43.5301 28.6865
ltoes 25.7008
143
root 1.60949 17.2628 34.8139 -160.608 -52.8583 -171.471
lowerback -16.7605 1.98239 1.12825
upperback -10.0973 1.36213 2.1886
thorax -1.39504 0.228784 1.88135
lowerneck -2.25229 -14.2306 -7.60282
upperneck 18.3513 -22.7883 11.8719
head 8.32495 -11.0041 2.87993
rclavicle -3.56756e-014 -8.34896e-015
rhumerus -57.6468 21.9732 -93.9405
rradius 34.8817
rwrist -38.841
rhand 19.1625 -7.52199
rfingers 7.12502
rthumb 43.7541 -31.496
lclavicle -3.56756e-014 -8.34896e-015
lhumerus -55.7275 -6.50352 82.9013
lradius 35.9897
lwrist 30.1631
lhand 28.6248 30.1778
lfingers 7.12502
lthumb 52.4665 50.0022
rfemur -16.9298 -5.80507 33.0954
rtibia 38.5804
rfoot 38.5159 -18.3284
rtoes 21.0656
lfemur -40.0108 1.08745 -27.8424
ltibia 30.9613
lfoot -43.4012 28.7763
ltoes 25.1836
144
root 1.61054 17.2595 34.8128 -160.663 -52.9729 -171.449
lowerback -16.8258 1.89316 1.14387
upperback -10.0905 1.23394 2.32461
thorax -1.35401 0.165447 1.9977
lowerneck -2.44476 -13.7338 -7.31389
upperneck 18.4151 -22.0131 11.6272
head 8.23148 -10.6248 2.85796
rclavicle -7.9986e-014 1.70955e-014
rhumerus -57.5771 22.5702 -93.9675
rradius 34.7557
rwrist -38.8426
rhand 19.647 -7.70182
rfingers 7.12502
rthumb 44.2061 -31.5074
lclavicle -7.9986e-014 1.70955e-014
lhumerus -55.3779 -6.02554 82.1416
lradius 35.973
lwrist 28.6605
lhand 28.8325 29.9245
lfingers 7.12502
lthumb 52.6543 49.6333
rfemur -16.8891 -6.04352 33.1547
rtibia 38.5625
rfoot 38.6956 -17.8167
rtoes 20.1656
lfemur -40.0461 1.19201 -27.8829
ltibia 31.0651
lfoot -43.1555 28.8012
ltoes 24.7244
145
root 1.61314 17.2577 34.813 -160.841 -53.089 -171.242
lowerback -16.7951 1.88802 1.30842
upperback -10.1673 1.19209 2.43493
thorax -1.45029 0.134082 2.01473
lowerneck -2.31407 -13.2883 -7.02336
upperneck 18.4012 -21.3224 11.3634
head 8.06616 -10.3081 2.84376
rclavicle -5.02863e-014 -5.12864e-014
rhumerus -57.2731 22.4966 -93.3893
rradius 34.651
rwrist -38.887
rhand 20.1312 -8.3453
rfingers 7.12502
rthumb 44.6573 -31.9786
lclavicle -5.02863e-014 -5.12864e-014
lhumerus -54.9927 -5.37465 81.2394
lradius 35.8651
lwrist 26.8131
lhand 28.99 29.6503
lfingers 7.12502
lthumb 52.7966 49.2706
rfemur -16.8725 -6.15495 33.3422
rtibia 38.5283
rfoot 38.7403 -17.6798
rtoes 19.5728
lfemur -40.1134 1.15838 -27.7043
ltibia 31.2074
lfoot -43.3017 28.6051
ltoes 24.9276
146
root 1.61813 17.2588 34.811 -160.861 -53.0898 -171.277
lowerback -16.7259 1.97232 1.32407
upperback -10.2671 1.29601 2.3793
thorax -1.59453 0.179557 1.96199
lowerneck -2.05006 -13.0751 -6.80477
upperneck 18.5508 -21.0411 11.161
head 7.99336 -10.192 2.8074
rclavicle 4.14466e-014 3.37934e-015
rhumerus -56.339 21.3201 -91.6983
rradius 34.5232
rwrist -39.0361
rhand 20.6097 -9.89134
rfingers 7.12502
rthumb 45.1026 -33.3504
lclavicle 4.14466e-014 3.37934e-015
lhumerus -54.6765 -4.95643 80.2685
lradius 35.8731
lwrist 24.9674
lhand 29.2561 29.2807
lfingers 7.12502
lthumb 53.0369 48.7497
rfemur -16.7605 -6.11614 33.3541
rtibia 38.4228
rfoot 38.7378 -17.7155
rtoes 19.5317
lfemur -40.1122 1.29302 -27.7539
ltibia 31.2998
lfoot -43.2113 28.3732
ltoes 25.2867
